<svg width="75" height="148" viewBox="0 0 75 148" fill="none" xmlns="http://www.w3.org/2000/svg">
<path d="M56.5045 35.7361C57.974 47.3942 48.8878 58.2146 48.8878 58.2146C48.8878 58.2146 37.4146 50.1348 35.945 38.4767C34.4755 26.8115 43.5617 15.9911 43.5617 15.9911C43.5617 15.9911 55.0281 24.0851 56.5045 35.7361ZM67.2879 74.9208C62.4861 85.592 49.1845 89.781 49.1845 89.781C49.1845 89.781 43.6652 76.6674 48.467 65.9961C53.2688 55.3249 66.5704 51.1288 66.5704 51.1288C66.5704 51.1288 72.0897 64.2495 67.2879 74.9208ZM61.6237 112.444C52.4616 119.494 38.8151 116.697 38.8151 116.697C38.8151 116.697 40.0293 102.462 49.1914 95.4113C58.3535 88.361 72 91.1584 72 91.1584C72 91.1584 70.7858 105.394 61.6237 112.444ZM36.7246 142.96C26.3414 147.915 13.5504 142.285 13.5504 142.285C13.5504 142.285 17.6002 128.618 27.9834 123.655C38.3666 118.699 51.1577 124.336 51.1577 124.336C51.1577 124.336 47.1079 138.004 36.7246 142.96ZM25.2169 9.87097C33.5648 17.9152 33.2475 32.1932 33.2475 32.1932C33.2475 32.1932 19.3802 33.4428 11.0322 25.3986C2.68422 17.3543 3.00159 3.06921 3.00159 3.06921C3.00159 3.06921 16.8689 1.82671 25.2169 9.87097Z" stroke="white" stroke-width="5" stroke-linecap="round" stroke-linejoin="round"/>
</svg>
