<svg width="75" height="148" viewBox="0 0 75 148" fill="none" xmlns="http://www.w3.org/2000/svg">
<path d="M18.4955 35.7361C17.026 47.3942 26.1122 58.2146 26.1122 58.2146C26.1122 58.2146 37.5854 50.1348 39.055 38.4767C40.5245 26.8115 31.4383 15.9911 31.4383 15.9911C31.4383 15.9911 19.9719 24.0851 18.4955 35.7361ZM7.71212 74.9208C12.5139 85.592 25.8155 89.781 25.8155 89.781C25.8155 89.781 31.3348 76.6674 26.533 65.9961C21.7312 55.3249 8.42963 51.1288 8.42963 51.1288C8.42963 51.1288 2.91031 64.2495 7.71212 74.9208ZM13.3763 112.444C22.5384 119.494 36.1849 116.697 36.1849 116.697C36.1849 116.697 34.9707 102.462 25.8086 95.4113C16.6465 88.361 3 91.1584 3 91.1584C3 91.1584 4.21425 105.394 13.3763 112.444ZM38.2754 142.96C48.6586 147.915 61.4496 142.285 61.4496 142.285C61.4496 142.285 57.3998 128.618 47.0166 123.655C36.6334 118.699 23.8423 124.336 23.8423 124.336C23.8423 124.336 27.8921 138.004 38.2754 142.96ZM49.7831 9.87097C41.4352 17.9152 41.7525 32.1932 41.7525 32.1932C41.7525 32.1932 55.6198 33.4428 63.9678 25.3986C72.3158 17.3543 71.9984 3.06921 71.9984 3.06921C71.9984 3.06921 58.1311 1.82671 49.7831 9.87097Z" stroke="white" stroke-width="5" stroke-linecap="round" stroke-linejoin="round"/>
</svg>
