<svg width="168" height="27" viewBox="0 0 168 27" fill="none" xmlns="http://www.w3.org/2000/svg">
<path d="M5.355 27L7.63 17.0171L0 10.3026L10.08 9.41447L14 0L17.92 9.41447L28 10.3026L20.37 17.0171L22.645 27L14 21.7066L5.355 27Z" fill="#CF8736"/>
<path d="M40.355 27L42.63 17.0171L35 10.3026L45.08 9.41447L49 0L52.92 9.41447L63 10.3026L55.37 17.0171L57.645 27L49 21.7066L40.355 27Z" fill="#CF8736"/>
<path d="M75.355 27L77.63 17.0171L70 10.3026L80.08 9.41447L84 0L87.92 9.41447L98 10.3026L90.37 17.0171L92.645 27L84 21.7066L75.355 27Z" fill="#CF8736"/>
<path d="M110.355 27L112.63 17.0171L105 10.3026L115.08 9.41447L119 0L122.92 9.41447L133 10.3026L125.37 17.0171L127.645 27L119 21.7066L110.355 27Z" fill="#CF8736"/>
<path d="M145.355 27L147.63 17.0171L140 10.3026L150.08 9.41447L154 0L157.92 9.41447L168 10.3026L160.37 17.0171L162.645 27L154 21.7066L145.355 27Z" fill="#CF8736"/>
</svg>
